<mxfile host="app.diagrams.net" modified="2023-08-28T11:47:33.797Z" agent="Mozilla/5.0 (Windows NT 10.0; Win64; x64) AppleWebKit/537.36 (KHTML, like Gecko) Chrome/116.0.0.0 Safari/537.36" etag="82eKnKcppm0DmceuY2OY" version="21.6.9" type="github">
  <diagram name="Page-1" id="10a91c8b-09ff-31b1-d368-03940ed4cc9e">
    <mxGraphModel dx="1232" dy="1108" grid="1" gridSize="10" guides="1" tooltips="1" connect="1" arrows="1" fold="1" page="1" pageScale="1" pageWidth="1100" pageHeight="850" background="none" math="0" shadow="0">
      <root>
        <mxCell id="0" />
        <mxCell id="1" parent="0" />
        <mxCell id="LB3D_sXBzz_esPVVZlD0-2" value="&lt;p style=&quot;margin:0in;font-family:Calibri;font-size:11.0pt&quot;&gt;C57750B6&lt;/p&gt;&lt;p style=&quot;margin:0in;font-family:Calibri;font-size:11.0pt&quot;&gt;-3957.0444&lt;/p&gt;&lt;p lang=&quot;en-US&quot; style=&quot;margin:0in;font-family:Calibri;font-size:11.0pt&quot;&gt;*&lt;/p&gt;" style="rounded=1;whiteSpace=wrap;html=1;" vertex="1" parent="1">
          <mxGeometry x="560" y="140" width="120" height="60" as="geometry" />
        </mxCell>
        <mxCell id="LB3D_sXBzz_esPVVZlD0-3" value="&lt;p style=&quot;margin: 0in;&quot;&gt;&lt;font face=&quot;Calibri&quot;&gt;bc7b3eb2&lt;/font&gt;&lt;/p&gt;&lt;p style=&quot;margin: 0in;&quot;&gt;&lt;font face=&quot;Calibri&quot;&gt;&lt;span style=&quot;font-size: 14.6667px;&quot;&gt;-0.015334772&lt;/span&gt;&lt;/font&gt;&lt;/p&gt;&lt;p style=&quot;margin: 0in;&quot;&gt;&lt;font face=&quot;Calibri&quot;&gt;&lt;span style=&quot;font-size: 14.6667px;&quot;&gt;FMA&lt;/span&gt;&lt;/font&gt;&lt;/p&gt;" style="rounded=1;whiteSpace=wrap;html=1;" vertex="1" parent="1">
          <mxGeometry x="330" y="220" width="120" height="60" as="geometry" />
        </mxCell>
        <mxCell id="LB3D_sXBzz_esPVVZlD0-4" value="&lt;div&gt;487bfefa&lt;/div&gt;&lt;div&gt;258043.9&lt;/div&gt;&lt;div&gt;*&lt;/div&gt;" style="rounded=1;whiteSpace=wrap;html=1;" vertex="1" parent="1">
          <mxGeometry x="720" y="220" width="120" height="60" as="geometry" />
        </mxCell>
        <mxCell id="LB3D_sXBzz_esPVVZlD0-7" value="&lt;div&gt;bc7b4137&lt;/div&gt;&lt;div&gt;-0.015335373&lt;/div&gt;" style="rounded=1;whiteSpace=wrap;html=1;" vertex="1" parent="1">
          <mxGeometry x="200" y="340" width="120" height="60" as="geometry" />
        </mxCell>
        <mxCell id="LB3D_sXBzz_esPVVZlD0-10" value="" style="endArrow=none;html=1;rounded=0;exitX=1;exitY=0;exitDx=0;exitDy=0;entryX=0.25;entryY=1;entryDx=0;entryDy=0;" edge="1" parent="1" source="LB3D_sXBzz_esPVVZlD0-3" target="LB3D_sXBzz_esPVVZlD0-2">
          <mxGeometry width="50" height="50" relative="1" as="geometry">
            <mxPoint x="450" y="250" as="sourcePoint" />
            <mxPoint x="500" y="200" as="targetPoint" />
          </mxGeometry>
        </mxCell>
        <mxCell id="LB3D_sXBzz_esPVVZlD0-11" value="" style="endArrow=none;html=1;rounded=0;entryX=0.75;entryY=1;entryDx=0;entryDy=0;" edge="1" parent="1" source="LB3D_sXBzz_esPVVZlD0-4" target="LB3D_sXBzz_esPVVZlD0-2">
          <mxGeometry width="50" height="50" relative="1" as="geometry">
            <mxPoint x="490" y="250" as="sourcePoint" />
            <mxPoint x="540" y="200" as="targetPoint" />
          </mxGeometry>
        </mxCell>
        <mxCell id="LB3D_sXBzz_esPVVZlD0-12" value="&lt;div&gt;bc7b4137&lt;/div&gt;&lt;div&gt;-0.015335373&lt;/div&gt;" style="rounded=1;whiteSpace=wrap;html=1;" vertex="1" parent="1">
          <mxGeometry x="490" y="340" width="120" height="60" as="geometry" />
        </mxCell>
        <mxCell id="LB3D_sXBzz_esPVVZlD0-13" value="&lt;div&gt;b8246571&lt;/div&gt;&lt;div&gt;-0.00003919512&lt;/div&gt;" style="rounded=1;whiteSpace=wrap;html=1;" vertex="1" parent="1">
          <mxGeometry x="340" y="340" width="120" height="60" as="geometry" />
        </mxCell>
        <mxCell id="LB3D_sXBzz_esPVVZlD0-14" value="" style="endArrow=none;html=1;rounded=0;exitX=0.5;exitY=0;exitDx=0;exitDy=0;" edge="1" parent="1" source="LB3D_sXBzz_esPVVZlD0-7">
          <mxGeometry width="50" height="50" relative="1" as="geometry">
            <mxPoint x="280" y="300" as="sourcePoint" />
            <mxPoint x="330" y="280" as="targetPoint" />
          </mxGeometry>
        </mxCell>
        <mxCell id="LB3D_sXBzz_esPVVZlD0-15" value="" style="endArrow=none;html=1;rounded=0;exitX=0.5;exitY=0;exitDx=0;exitDy=0;entryX=0.5;entryY=1;entryDx=0;entryDy=0;" edge="1" parent="1" source="LB3D_sXBzz_esPVVZlD0-13" target="LB3D_sXBzz_esPVVZlD0-3">
          <mxGeometry width="50" height="50" relative="1" as="geometry">
            <mxPoint x="470" y="240" as="sourcePoint" />
            <mxPoint x="520" y="220" as="targetPoint" />
          </mxGeometry>
        </mxCell>
        <mxCell id="LB3D_sXBzz_esPVVZlD0-16" value="" style="endArrow=none;html=1;rounded=0;exitX=0.2;exitY=-0.05;exitDx=0;exitDy=0;entryX=0.75;entryY=1;entryDx=0;entryDy=0;exitPerimeter=0;" edge="1" parent="1" source="LB3D_sXBzz_esPVVZlD0-12" target="LB3D_sXBzz_esPVVZlD0-3">
          <mxGeometry width="50" height="50" relative="1" as="geometry">
            <mxPoint x="410" y="350" as="sourcePoint" />
            <mxPoint x="400" y="290" as="targetPoint" />
          </mxGeometry>
        </mxCell>
        <mxCell id="LB3D_sXBzz_esPVVZlD0-17" value="&lt;div&gt;48000000&lt;/div&gt;&lt;div&gt;131072&lt;/div&gt;&lt;div&gt;2expr&lt;/div&gt;" style="rounded=1;whiteSpace=wrap;html=1;" vertex="1" parent="1">
          <mxGeometry x="670" y="340" width="120" height="60" as="geometry" />
        </mxCell>
        <mxCell id="LB3D_sXBzz_esPVVZlD0-18" value="&lt;div&gt;3ffbfefa&lt;/div&gt;&lt;div&gt;1.9687188&lt;/div&gt;&lt;div&gt;2expr&lt;/div&gt;" style="rounded=1;whiteSpace=wrap;html=1;" vertex="1" parent="1">
          <mxGeometry x="830" y="340" width="120" height="60" as="geometry" />
        </mxCell>
        <mxCell id="LB3D_sXBzz_esPVVZlD0-19" value="" style="endArrow=none;html=1;rounded=0;exitX=0.683;exitY=-0.017;exitDx=0;exitDy=0;exitPerimeter=0;" edge="1" parent="1" source="LB3D_sXBzz_esPVVZlD0-17">
          <mxGeometry width="50" height="50" relative="1" as="geometry">
            <mxPoint x="710" y="330" as="sourcePoint" />
            <mxPoint x="760" y="280" as="targetPoint" />
          </mxGeometry>
        </mxCell>
        <mxCell id="LB3D_sXBzz_esPVVZlD0-20" value="" style="endArrow=none;html=1;rounded=0;exitX=0.2;exitY=-0.033;exitDx=0;exitDy=0;exitPerimeter=0;entryX=0.75;entryY=1;entryDx=0;entryDy=0;" edge="1" parent="1" source="LB3D_sXBzz_esPVVZlD0-18" target="LB3D_sXBzz_esPVVZlD0-4">
          <mxGeometry width="50" height="50" relative="1" as="geometry">
            <mxPoint x="762" y="349" as="sourcePoint" />
            <mxPoint x="770" y="290" as="targetPoint" />
          </mxGeometry>
        </mxCell>
        <mxCell id="LB3D_sXBzz_esPVVZlD0-21" value="&lt;div&gt;41880000&lt;/div&gt;&lt;div&gt;17.0f&lt;/div&gt;" style="rounded=1;whiteSpace=wrap;html=1;" vertex="1" parent="1">
          <mxGeometry x="670" y="425" width="120" height="60" as="geometry" />
        </mxCell>
        <mxCell id="LB3D_sXBzz_esPVVZlD0-22" value="3f7a2d85&lt;br&gt;0.9772571&lt;br&gt;*" style="rounded=1;whiteSpace=wrap;html=1;" vertex="1" parent="1">
          <mxGeometry x="830" y="425" width="120" height="60" as="geometry" />
        </mxCell>
        <mxCell id="LB3D_sXBzz_esPVVZlD0-23" value="" style="endArrow=none;html=1;rounded=0;" edge="1" parent="1" source="LB3D_sXBzz_esPVVZlD0-21">
          <mxGeometry width="50" height="50" relative="1" as="geometry">
            <mxPoint x="690" y="450" as="sourcePoint" />
            <mxPoint x="740" y="400" as="targetPoint" />
          </mxGeometry>
        </mxCell>
        <mxCell id="LB3D_sXBzz_esPVVZlD0-24" value="" style="endArrow=none;html=1;rounded=0;entryX=0.5;entryY=1;entryDx=0;entryDy=0;exitX=0.5;exitY=0;exitDx=0;exitDy=0;" edge="1" parent="1" source="LB3D_sXBzz_esPVVZlD0-22" target="LB3D_sXBzz_esPVVZlD0-18">
          <mxGeometry width="50" height="50" relative="1" as="geometry">
            <mxPoint x="745" y="435" as="sourcePoint" />
            <mxPoint x="750" y="410" as="targetPoint" />
          </mxGeometry>
        </mxCell>
        <mxCell id="LB3D_sXBzz_esPVVZlD0-25" value="&lt;div&gt;0.677383&lt;/div&gt;&lt;div&gt;3f2d68f9&lt;/div&gt;&lt;div&gt;FMA&lt;/div&gt;" style="rounded=1;whiteSpace=wrap;html=1;" vertex="1" parent="1">
          <mxGeometry x="760" y="530" width="120" height="60" as="geometry" />
        </mxCell>
        <mxCell id="LB3D_sXBzz_esPVVZlD0-26" value="&lt;div&gt;1.442695&lt;/div&gt;&lt;div&gt;3fb8aa3b&lt;/div&gt;" style="rounded=1;whiteSpace=wrap;html=1;" vertex="1" parent="1">
          <mxGeometry x="910" y="530" width="120" height="60" as="geometry" />
        </mxCell>
        <mxCell id="LB3D_sXBzz_esPVVZlD0-27" value="" style="endArrow=none;html=1;rounded=0;entryX=0.25;entryY=1;entryDx=0;entryDy=0;exitX=0.583;exitY=0.017;exitDx=0;exitDy=0;exitPerimeter=0;" edge="1" parent="1" source="LB3D_sXBzz_esPVVZlD0-25" target="LB3D_sXBzz_esPVVZlD0-22">
          <mxGeometry width="50" height="50" relative="1" as="geometry">
            <mxPoint x="810" y="540" as="sourcePoint" />
            <mxPoint x="860" y="490" as="targetPoint" />
          </mxGeometry>
        </mxCell>
        <mxCell id="LB3D_sXBzz_esPVVZlD0-28" value="" style="endArrow=none;html=1;rounded=0;entryX=0.75;entryY=1;entryDx=0;entryDy=0;exitX=0.25;exitY=0;exitDx=0;exitDy=0;" edge="1" parent="1" source="LB3D_sXBzz_esPVVZlD0-26" target="LB3D_sXBzz_esPVVZlD0-22">
          <mxGeometry width="50" height="50" relative="1" as="geometry">
            <mxPoint x="840" y="541" as="sourcePoint" />
            <mxPoint x="870" y="495" as="targetPoint" />
          </mxGeometry>
        </mxCell>
        <mxCell id="LB3D_sXBzz_esPVVZlD0-29" value="41880000&lt;br&gt;17" style="rounded=1;whiteSpace=wrap;html=1;" vertex="1" parent="1">
          <mxGeometry x="630" y="650" width="120" height="60" as="geometry" />
        </mxCell>
        <mxCell id="LB3D_sXBzz_esPVVZlD0-30" value="3f2d6a90&lt;br&gt;0.67740726" style="rounded=1;whiteSpace=wrap;html=1;" vertex="1" parent="1">
          <mxGeometry x="920" y="650" width="120" height="60" as="geometry" />
        </mxCell>
        <mxCell id="LB3D_sXBzz_esPVVZlD0-31" value="b5bfbe8e&lt;br&gt;0.0000014286068" style="rounded=1;whiteSpace=wrap;html=1;" vertex="1" parent="1">
          <mxGeometry x="770" y="650" width="120" height="60" as="geometry" />
        </mxCell>
        <mxCell id="LB3D_sXBzz_esPVVZlD0-32" value="" style="endArrow=none;html=1;rounded=0;exitX=0.5;exitY=0;exitDx=0;exitDy=0;" edge="1" parent="1" source="LB3D_sXBzz_esPVVZlD0-29">
          <mxGeometry width="50" height="50" relative="1" as="geometry">
            <mxPoint x="710" y="610" as="sourcePoint" />
            <mxPoint x="760" y="590" as="targetPoint" />
          </mxGeometry>
        </mxCell>
        <mxCell id="LB3D_sXBzz_esPVVZlD0-33" value="" style="endArrow=none;html=1;rounded=0;exitX=0.5;exitY=0;exitDx=0;exitDy=0;entryX=0.5;entryY=1;entryDx=0;entryDy=0;" edge="1" parent="1" source="LB3D_sXBzz_esPVVZlD0-31">
          <mxGeometry width="50" height="50" relative="1" as="geometry">
            <mxPoint x="900" y="550" as="sourcePoint" />
            <mxPoint x="820" y="590" as="targetPoint" />
          </mxGeometry>
        </mxCell>
        <mxCell id="LB3D_sXBzz_esPVVZlD0-34" value="" style="endArrow=none;html=1;rounded=0;exitX=0.2;exitY=-0.05;exitDx=0;exitDy=0;entryX=0.75;entryY=1;entryDx=0;entryDy=0;exitPerimeter=0;" edge="1" parent="1" source="LB3D_sXBzz_esPVVZlD0-30">
          <mxGeometry width="50" height="50" relative="1" as="geometry">
            <mxPoint x="840" y="660" as="sourcePoint" />
            <mxPoint x="850" y="590" as="targetPoint" />
          </mxGeometry>
        </mxCell>
      </root>
    </mxGraphModel>
  </diagram>
</mxfile>
